# xmcd CD database file
#
# Track frame offsets:
#	150
#	23215
#	43686
#	66199
#	83304
#	103031
#	121106
#	141048
#	162367
#	178547
#	198944
#	222420
#	241104
#
# Disc length: 3539 seconds
#
# Revision: 2
# Processed by: cddbd v1.5.1PL2 Copyright (c) Steve Scherf et al.
# Submitted via: CDex 1.51
#
DISCID=a60dd10d
DTITLE=スピッツ - RECYCLE Greatest Hits of SPITZ
DYEAR=1999
DGENRE=Domestic(J-Pops)
TTITLE0=君が思い出になる前に
TTITLE1=空も飛べるはず
TTITLE2=青い車
TTITLE3=スパイダー
TTITLE4=ロビンソン
TTITLE5=涙がキラリ☆
TTITLE6=チェリー
TTITLE7=渚
TTITLE8=スカーレット
TTITLE9=夢じゃない
TTITLE10=運命の人
TTITLE11=冷たい頬
TTITLE12=楓
EXTD=YEAR: 1999
EXTT0=
EXTT1=
EXTT2=
EXTT3=
EXTT4=
EXTT5=
EXTT6=
EXTT7=
EXTT8=
EXTT9=
EXTT10=
EXTT11=
EXTT12=
PLAYORDER=
